<?xml version="1.0" standalone="no"?>
<!DOCTYPE svg PUBLIC "-//W3C//DTD SVG 1.1//EN" "http://www.w3.org/Graphics/SVG/1.1/DTD/svg11.dtd" >
<svg xmlns="http://www.w3.org/2000/svg">
<metadata></metadata>
<defs>
<font id="OstrichSansLight" horiz-adv-x="1705" >
<font-face units-per-em="2048" ascent="1536" descent="-512" />
<missing-glyph horiz-adv-x="430" />
<glyph horiz-adv-x="0" />
<glyph horiz-adv-x="2048" />
<glyph unicode="&#xd;" horiz-adv-x="430" />
<glyph unicode=" "  horiz-adv-x="430" />
<glyph unicode="&#x09;" horiz-adv-x="430" />
<glyph unicode="&#xa0;" horiz-adv-x="430" />
<glyph unicode="!" horiz-adv-x="100" d="M8 0v33h10v-33h-10zM8 201v1126h10v-1126h-10z" />
<glyph unicode="&#x22;" horiz-adv-x="256" d="M2 1184v127h10v-127h-10zM125 1184v127h10v-127h-10z" />
<glyph unicode="#" horiz-adv-x="1040" d="M12 463v10h295l74 379h-303v8h305l92 467h8l-90 -467h346l90 467h11l-92 -467h253v-8h-256l-73 -379h264v-10h-266l-90 -463h-11l93 463h-347l-92 -463h-8l90 463h-293zM317 473h347l73 379h-346z" />
<glyph unicode="$" horiz-adv-x="591" d="M10 387v6h10v-6q0 -272 213 -278v542q-18 12 -36.5 20.5t-52 28t-63.5 50.5q-71 72 -71 184v8q2 129 61.5 206t161.5 79v100h11v-100q223 -4 223 -289v-4h-10v4q0 139 -55.5 209t-157.5 70v-560q6 -4 28.5 -15t55 -28.5t62.5 -47.5q70 -68 77 -173v-26 q-6 -123 -65.5 -194t-157.5 -73v-100h-11v100q-223 4 -223 287zM20 938q0 -178 189 -262q6 -4 13 -6t11 -6v553q-98 -2 -155.5 -77t-57.5 -202zM244 109q96 4 153.5 75.5t59.5 194.5q0 171 -191 256q-16 8 -22 12v-538z" />
<glyph unicode="%" horiz-adv-x="923" d="M53 895v180q2 59 35 106.5t100 49.5h11q72 -2 103.5 -51.5t31.5 -108.5v-176q0 -59 -32 -108.5t-103 -53.5h-11q-70 4 -102.5 53.5t-32.5 108.5zM63 895q0 -57 32 -104.5t100 -47.5t99.5 47.5t31.5 104.5v176q0 55 -32 102.5t-99 47.5q-68 0 -100 -47.5t-32 -102.5v-176z M199 0l487 1327h10l-487 -1327h-10zM555 252v182q2 57 34 104.5t101 49.5v2h10v-2q70 -2 103 -51.5t33 -108.5v-176q0 -59 -33 -108.5t-103 -51.5h-10q-72 2 -103.5 51.5t-31.5 108.5zM565 252q0 -55 31 -102.5t98 -47.5q68 0 99.5 47.5t31.5 102.5v176q0 57 -31.5 104.5 t-99.5 47.5t-98.5 -47.5t-30.5 -104.5v-176z" />
<glyph unicode="&#x26;" horiz-adv-x="778" d="M10 313q0 158 116 265q34 32 64 56q57 47 97 87q-72 90 -123 239q-19 58 -19 150t34 155t118 63q123 -1 137 -166q4 -48 4 -116q0 -120 -71 -241q-30 -48 -68 -86l307 -526q2 4 2 6t2 6q60 132 60 358v6h10v-6q0 -225 -59 -362q-4 -4 -5.5 -9.5t-5.5 -9.5l107 -182h-10 l-101 174q-94 -172 -309 -174h-10q-127 4 -203 92q-74 87 -74 221zM20 301.5q0 -123.5 75 -207.5t198 -84q215 0 307 172l-309 531q-44 -44 -84.5 -77.5t-73.5 -64t-59 -67.5q-54 -79 -54 -202.5zM156 1111q0 -91 18.5 -147.5t41.5 -105.5q28 -58 77 -131q77 77 117 205 q18 61 18 124.5t-4 107.5t-18 78q-32 75 -108.5 75t-109 -57.5t-32.5 -148.5z" />
<glyph unicode="'" horiz-adv-x="100" d="M2 1184v127h10v-127h-10z" />
<glyph unicode="(" horiz-adv-x="235" d="M-2 662q0 339 90 536q35 74 62.5 100.5t29.5 28.5l4 2l6 -8q-19 -10 -48 -51t-53 -92.5t-52.5 -179.5t-28.5 -338q0 -333 88 -527q37 -82 90 -123l4 -2l-6 -8l-4 2q-2 2 -29.5 27.5t-60.5 94.5q-92 192 -92 538z" />
<glyph unicode=")" horiz-adv-x="206" d="M8 8q89 44 152 317q30 126 30 336q0 336 -90 533q-23 50 -48 82q-29 38 -44 45l4 8l4 -2q2 -2 30 -28.5t62 -97.5q93 -194 93 -539t-92 -535q-35 -72 -63 -97.5t-30 -27.5l-4 -2z" />
<glyph unicode="*" horiz-adv-x="456" d="M10 1155l4 10l209 -78v224h10v-224l209 78l4 -10l-208 -78l155 -176l-8 -6l-156 178l-157 -178l-9 6l158 176z" />
<glyph unicode="+" horiz-adv-x="655" d="M2 657v11h299v299h10v-299h299v-11h-299v-299h-10v299h-299z" />
<glyph unicode="," horiz-adv-x="108" d="M14 33h11v-115h-11v115z" />
<glyph unicode="-" horiz-adv-x="477" d="M20 657v11h447v-11h-447z" />
<glyph unicode="." horiz-adv-x="124" d="M16 0v33h11v-33h-11z" />
<glyph unicode="/" horiz-adv-x="612" d="M12 0l488 1325h10l-487 -1325h-11z" />
<glyph unicode="0" horiz-adv-x="630" d="M6 344v641q0 340 228.5 340t228.5 -340v-641q0 -344 -230 -344q-227 0 -227 344zM16 344q0 -334 217.5 -334t219.5 334v641q0 332 -220 332q-215 0 -217 -332v-641z" />
<glyph unicode="1" horiz-adv-x="364" d="M4 1085l201 240h6v-1325h-10v1309l-189 -230z" />
<glyph unicode="2" horiz-adv-x="595" d="M18 0v4q0 203 134 418q61 97 105 160t62 90q72 91 97 143q49 107 48 225.5t-59.5 197.5t-164.5 79q-211 0 -211 -301v-6h-11v6q0 309 230 309q98 0 159.5 -77t67.5 -210v-28q-4 -108 -35 -170q-33 -64 -81.5 -132.5t-68.5 -94t-55.5 -80t-76.5 -119t-70 -128.5 q-59 -129 -59 -276h446v-10h-457z" />
<glyph unicode="3" horiz-adv-x="563" d="M8 338v4h10v-4q0 -328 220 -328q102 0 161 96q56 85 55 200.5t-32 175t-67 94.5q-82 81 -173 81h-94v9h94q92 0 170 76q99 97 101 241.5t-55.5 239t-159.5 94.5q-218 0 -220 -332v-4h-10v4q0 340 230 340q109 0 170 -102q48 -73 57 -213v-29q-6 -143 -100 -240 q-57 -61 -140 -79q126 -27 205 -170q31 -58 35 -150v-29q-9 -137 -57 -213q-63 -100 -170 -100q-228 0 -230 338z" />
<glyph unicode="4" horiz-adv-x="638" d="M8 422v10l494 893h8v-1325h-10v422h-492zM18 430h482v873z" />
<glyph unicode="5" horiz-adv-x="587" d="M14 332v6h11v-6q0 -322 217 -322q104 0 161.5 92t57.5 230v147q0 316 -219 316q-98 0 -157.5 -85t-59.5 -231v-8h-11v854h457v-8h-446v-731q20 102 76.5 160.5t140.5 58.5q229 0 229 -326v-147q0 -144 -60 -238t-169 -94q-226 0 -228 332z" />
<glyph unicode="6" horiz-adv-x="571" d="M10 291v612q0 418 223 422h11q106 0 164.5 -82t58.5 -223v-4h-10v4q0 143 -56.5 220t-162.5 77t-162 -104.5t-56 -309.5v-305q20 106 77 166.5t141 60.5q229 0 229 -336v-151q0 -154 -62.5 -246t-170 -92t-165.5 77t-59 214zM20 291q0 -133 56 -207q55 -74 158.5 -74 t163 88t59.5 240v151q0 328 -219 328q-98 0 -158 -89t-60 -236v-201z" />
<glyph unicode="7" horiz-adv-x="720" d="M27 1315v10h637v-8l-551 -1319h-11l549 1317h-624z" />
<glyph unicode="8" horiz-adv-x="620" d="M8 317v33q11 280 193 314q-88 16 -133 84q-53 74 -60 229v31q6 154 63.5 235.5t182.5 81.5h8q125 0 182.5 -82t63.5 -235v-31q-6 -156 -59 -229q-45 -68 -134 -84q182 -34 193 -314v-33q-6 -156 -59 -229q-61 -88 -187 -88h-8q-125 0 -186 88q-53 74 -60 229zM18 993 q2 -166 59.5 -245.5t180.5 -79.5t180.5 79.5t59.5 245.5q-2 324 -240 324t-240 -324zM20 334q0 -166 57.5 -245t180.5 -79t180.5 79t59.5 245q-2 166 -59.5 245.5t-180.5 79.5t-180.5 -79.5t-57.5 -245.5z" />
<glyph unicode="9" horiz-adv-x="595" d="M6 307v4h10v-4q0 -145 56.5 -221t160.5 -76q220 0 220 412v305q-20 -106 -77 -166.5t-143 -60.5q-227 0 -227 338v151q0 154 61.5 245t171 91t167.5 -78q57 -80 57 -213v-612q0 -418 -223 -422h-11q-109 4 -166 82t-57 225zM16 838q0 -328 217 -328q100 0 160 88t60 236 v200q0 133 -56.5 208t-159 75t-162 -89t-59.5 -239v-151z" />
<glyph unicode=":" d="M16 334v100h11v-100h-11zM16 897v102h11v-102h-11z" />
<glyph unicode=";" horiz-adv-x="141" d="M12 260v174h11v-174h-11zM12 897v102h11v-102h-11z" />
<glyph unicode="&#x3c;" />
<glyph unicode="=" horiz-adv-x="579" d="M20 432v10h447v-10h-447zM20 842v10h447v-10h-447z" />
<glyph unicode="&#x3e;" />
<glyph unicode="?" horiz-adv-x="530" d="M16 995v4q0 326 228 326q111 0 167 -90t60 -213v-6l2 -8l-2 -7v-6q-11 -192 -199 -372l-24 -25q-53 -58 -53 -249v-146h-11v135.5t6 111.5q12 113 52 154q13 13 30 31.5t49.5 54t63.5 82.5q74 113 78 236q-4 135 -59 222t-160 87q-217 0 -217 -318v-4h-11zM184 0v33h11 v-33h-11z" />
<glyph unicode="@" horiz-adv-x="1234" d="M14 719q53 330 328 483q80 45 172 64q172 35 324 -22q216 -80 286 -296q37 -117 19 -266q-24 -197 -193 -279q-109 -56 -188.5 -36t-67.5 98q2 14 7.5 47t11.5 74q-34 -108 -114 -121q-38 -6 -89 -6q-98 0 -141 49q-49 51 -34 170t68 178t158 59q176 0 189 -106 q2 10 16 94v6l10 -2v-4q0 -2 -5 -29.5t-12 -71.5t-16.5 -96.5t-16.5 -100.5t-13 -87t-10 -68.5t14 -48t35 -22.5q24 -6 54 -6t76 13t89 39q95 58 131 142q44 105 35 251q-9 140 -60 218t-111.5 125t-131.5 74q-153 57 -318 20q-172 -36 -302 -159q-151 -144 -186 -358 q-67 -417 230 -597q173 -108 418 -97q242 11 416 138l2 4l6 -8l-4 -4q-182 -129 -418 -141h-43q-222 0 -375 95q-308 191 -246 591zM346 680q-14 -117 27 -164t137 -47q49 0 85 5t63 32q49 49 79 229q10 68 -3 97.5t-34 43.5q-46 31 -140.5 31t-147 -55t-66.5 -172z" />
<glyph unicode="A" horiz-adv-x="761" d="M12 0l307 1325h9l307 -1325h-10l-99 420h-407l-96 -420h-11zM123 430h401l-200 868z" />
<glyph unicode="B" horiz-adv-x="595" d="M16 0v1325h199q141 0 213 -86q56 -80 66 -229v-33q-11 -285 -215 -313q202 -31 215 -316v-33q-8 -146 -66 -229q-72 -86 -213 -86h-199zM25 8h190q266 0 268 324q-2 168 -67.5 247.5t-200.5 79.5h-190v-651zM25 668h190q135 0 200.5 79.5t67.5 245.5q-2 324 -268 324 h-190v-649z" />
<glyph unicode="C" horiz-adv-x="663" d="M10 340v653q2 328 262 332h11q260 -4 260 -338v-4h-11v4q0 330 -256 330t-256 -330v-647q0 -332 256 -332t256 332v4h11v-4q0 -336 -260 -340h-11q-262 4 -262 340z" />
<glyph unicode="D" horiz-adv-x="620" d="M8 0v1325h209q291 0 291 -344v-637q0 -344 -291 -344h-209zM16 8h201q281 0 281 336v637q0 336 -281 336h-201v-1309z" />
<glyph unicode="E" horiz-adv-x="530" d="M8 0v1325h441v-8h-433v-649h433v-9h-433v-651h433v-8h-441z" />
<glyph unicode="F" horiz-adv-x="522" d="M12 0v1325h441v-8h-433v-649h433v-9h-433v-659h-8z" />
<glyph unicode="G" horiz-adv-x="663" d="M12 338v657q0 330 267 330q268 0 268 -336v-4h-10v4q0 328 -258.5 328t-258.5 -328v-651q0 -330 259 -330q258 0 258 330v207h-299v10h309v-217q0 -338 -267 -338t-268 338z" />
<glyph unicode="H" horiz-adv-x="655" d="M10 0v1325h8v-657h476v657h10v-1325h-10v657h-476v-657h-8z" />
<glyph unicode="I" horiz-adv-x="206" d="M49 0v1325h10v-1325h-10z" />
<glyph unicode="J" horiz-adv-x="630" d="M12 309v6h11v-6q0 -301 235.5 -301t237.5 301v1016h10v-1016q0 -309 -246 -309t-248 309z" />
<glyph unicode="K" horiz-adv-x="647" d="M10 2v1325h8v-829l156 227l412 602h10l-410 -604l412 -723h-10l-408 715l-162 -234v-479h-8z" />
<glyph unicode="L" horiz-adv-x="546" d="M12 0v1327h8v-1317h465v-10h-473z" />
<glyph unicode="M" horiz-adv-x="919" d="M10 2v1325h8l375 -1304l375 1304h8v-1325h-10v1286l-369 -1288h-8l-369 1288v-1286h-10z" />
<glyph unicode="N" horiz-adv-x="704" d="M10 2v1325h8l523 -1296v1296h10v-1327h-8l-523 1298v-1296h-10z" />
<glyph unicode="O" horiz-adv-x="679" d="M6 338v651q0 336 267 336t268 -336v-651q-1 -338 -268 -338t-267 338zM16 338q0 -330 258 -330q256 0 256 325v5v651q0 328 -256 328q-258 0 -258 -328v-651z" />
<glyph unicode="P" horiz-adv-x="638" d="M12 0v1325h221q289 0 291 -315v-6l2 -11l-2 -10v-6q-4 -320 -291 -320h-213v-657h-8zM20 668h213q141 0 210 79.5t73 245.5q-4 166 -72.5 245t-210.5 79h-213v-649z" />
<glyph unicode="Q" horiz-adv-x="696" d="M12 346v647q0 332 267 332q266 0 266 -332v-647q0 -188 -84 -276l100 -123h-12l-96 114q-66 -61 -174 -61q-266 0 -267 346zM23 346q0 -338 256 -338q104 0 170 62l-93 110h13l86 -104q4 4 7 9t7 9q66 88 66 252v647q0 324 -256 324t-256 -324v-647z" />
<glyph unicode="R" horiz-adv-x="679" d="M10 0v1325h221q143 0 215 -78t76 -243v-33q-4 -289 -225 -320q109 -18 168 -93t61 -198v-360h-10v354q0 137 -74.5 215t-210.5 78h-211v-647h-10zM20 655h211q143 0 212 81t71 253q-4 328 -283 328h-211v-662z" />
<glyph unicode="S" horiz-adv-x="655" d="M10 336v6h8v-6q0 -328 261 -328q117 0 185 86t73 232q-3 138 -100 227q-53 49 -146 88l-31 14q-96 37 -154 95q-96 90 -96 231v10q2 154 74 244t195 90q268 0 268 -338v-6h-10v6q0 330 -258 330q-119 0 -190 -90t-71 -240q0 -137 94 -229q60 -58 152 -94l29 -13 q89 -36 137 -79q108 -97 115 -230v-12q0 -2 2 -2l-2 -9v-6q-4 -131 -71 -222t-195 -91q-269 0 -269 336z" />
<glyph unicode="T" horiz-adv-x="737" d="M10 1317v8h672v-8h-332v-1317h-8v1317h-332z" />
<glyph unicode="U" horiz-adv-x="688" d="M10 311v1014h8v-1014q0 -154 62 -227q59 -76 176 -76q234 0 236 303v1014h10v-1014q0 -309 -242 -311h-8q-242 2 -242 311z" />
<glyph unicode="V" horiz-adv-x="778" d="M14 1327h11l325 -1300l326 1300h10l-332 -1327h-6z" />
<glyph unicode="W" horiz-adv-x="1308" d="M12 1327h11l284 -1298l287 1298h8l287 -1298l287 1298h10l-293 -1327h-8l-287 1300l-287 -1300h-6z" />
<glyph unicode="X" horiz-adv-x="745" d="M16 0l314 664l-314 661h11l309 -651l305 651h10l-311 -661l313 -664h-10l-307 651l-307 -651h-13z" />
<glyph unicode="Y" horiz-adv-x="761" d="M-27 1325h13l358 -653l361 653h12l-367 -663v-662h-10v662z" />
<glyph unicode="Z" horiz-adv-x="770" d="M14 1317v8h625v-10l-612 -1307h614v-8h-625v10l613 1307h-615z" />
<glyph unicode="[" />
<glyph unicode="\" horiz-adv-x="612" d="M20 1325h11l487 -1325h-10z" />
<glyph unicode="]" />
<glyph unicode="^" />
<glyph unicode="_" horiz-adv-x="837" d="M14 0h772v-10h-772v10z" />
<glyph unicode="a" horiz-adv-x="761" d="M12 0l307 1325h9l307 -1325h-10l-99 420h-407l-96 -420h-11zM123 430h401l-200 868z" />
<glyph unicode="b" horiz-adv-x="595" d="M16 0v1325h199q141 0 213 -86q56 -80 66 -229v-33q-11 -285 -215 -313q202 -31 215 -316v-33q-8 -146 -66 -229q-72 -86 -213 -86h-199zM25 8h190q266 0 268 324q-2 168 -67.5 247.5t-200.5 79.5h-190v-651zM25 668h190q135 0 200.5 79.5t67.5 245.5q-2 324 -268 324 h-190v-649z" />
<glyph unicode="c" horiz-adv-x="663" d="M10 340v653q2 328 262 332h11q260 -4 260 -338v-4h-11v4q0 330 -256 330t-256 -330v-647q0 -332 256 -332t256 332v4h11v-4q0 -336 -260 -340h-11q-262 4 -262 340z" />
<glyph unicode="d" horiz-adv-x="620" d="M8 0v1325h209q291 0 291 -344v-637q0 -344 -291 -344h-209zM16 8h201q281 0 281 336v637q0 336 -281 336h-201v-1309z" />
<glyph unicode="e" horiz-adv-x="530" d="M8 0v1325h441v-8h-433v-649h433v-9h-433v-651h433v-8h-441z" />
<glyph unicode="f" horiz-adv-x="522" d="M12 0v1325h441v-8h-433v-649h433v-9h-433v-659h-8z" />
<glyph unicode="g" horiz-adv-x="663" d="M12 338v657q0 330 267 330q268 0 268 -336v-4h-10v4q0 328 -258.5 328t-258.5 -328v-651q0 -330 259 -330q258 0 258 330v207h-299v10h309v-217q0 -338 -267 -338t-268 338z" />
<glyph unicode="h" horiz-adv-x="655" d="M10 0v1325h8v-657h476v657h10v-1325h-10v657h-476v-657h-8z" />
<glyph unicode="i" horiz-adv-x="206" d="M49 0v1325h10v-1325h-10z" />
<glyph unicode="j" horiz-adv-x="630" d="M12 309v6h11v-6q0 -301 235.5 -301t237.5 301v1016h10v-1016q0 -309 -246 -309t-248 309z" />
<glyph unicode="k" horiz-adv-x="647" d="M10 2v1325h8v-829l156 227l412 602h10l-410 -604l412 -723h-10l-408 715l-162 -234v-479h-8z" />
<glyph unicode="l" horiz-adv-x="546" d="M12 0v1327h8v-1317h465v-10h-473z" />
<glyph unicode="m" horiz-adv-x="919" d="M10 2v1325h8l375 -1304l375 1304h8v-1325h-10v1286l-369 -1288h-8l-369 1288v-1286h-10z" />
<glyph unicode="n" horiz-adv-x="704" d="M10 2v1325h8l523 -1296v1296h10v-1327h-8l-523 1298v-1296h-10z" />
<glyph unicode="o" horiz-adv-x="679" d="M6 338v651q0 336 267 336t268 -336v-651q-1 -338 -268 -338t-267 338zM16 338q0 -330 258 -330q256 0 256 325v5v651q0 328 -256 328q-258 0 -258 -328v-651z" />
<glyph unicode="p" horiz-adv-x="638" d="M12 0v1325h221q289 0 291 -315v-6l2 -11l-2 -10v-6q-4 -320 -291 -320h-213v-657h-8zM20 668h213q141 0 210 79.5t73 245.5q-4 166 -72.5 245t-210.5 79h-213v-649z" />
<glyph unicode="q" horiz-adv-x="696" d="M12 346v647q0 332 267 332q266 0 266 -332v-647q0 -188 -84 -276l100 -123h-12l-96 114q-66 -61 -174 -61q-266 0 -267 346zM23 346q0 -338 256 -338q104 0 170 62l-93 110h13l86 -104q4 4 7 9t7 9q66 88 66 252v647q0 324 -256 324t-256 -324v-647z" />
<glyph unicode="r" horiz-adv-x="679" d="M10 0v1325h221q143 0 215 -78t76 -243v-33q-4 -289 -225 -320q109 -18 168 -93t61 -198v-360h-10v354q0 137 -74.5 215t-210.5 78h-211v-647h-10zM20 655h211q143 0 212 81t71 253q-4 328 -283 328h-211v-662z" />
<glyph unicode="s" horiz-adv-x="655" d="M10 336v6h8v-6q0 -328 261 -328q117 0 185 86t73 232q-3 138 -100 227q-53 49 -146 88l-31 14q-96 37 -154 95q-96 90 -96 231v10q2 154 74 244t195 90q268 0 268 -338v-6h-10v6q0 330 -258 330q-119 0 -190 -90t-71 -240q0 -137 94 -229q60 -58 152 -94l29 -13 q89 -36 137 -79q108 -97 115 -230v-12q0 -2 2 -2l-2 -9v-6q-4 -131 -71 -222t-195 -91q-269 0 -269 336z" />
<glyph unicode="t" horiz-adv-x="737" d="M10 1317v8h672v-8h-332v-1317h-8v1317h-332z" />
<glyph unicode="u" horiz-adv-x="688" d="M10 311v1014h8v-1014q0 -154 62 -227q59 -76 176 -76q234 0 236 303v1014h10v-1014q0 -309 -242 -311h-8q-242 2 -242 311z" />
<glyph unicode="v" horiz-adv-x="778" d="M14 1327h11l325 -1300l326 1300h10l-332 -1327h-6z" />
<glyph unicode="w" horiz-adv-x="1308" d="M12 1327h11l284 -1298l287 1298h8l287 -1298l287 1298h10l-293 -1327h-8l-287 1300l-287 -1300h-6z" />
<glyph unicode="x" horiz-adv-x="745" d="M16 0l314 664l-314 661h11l309 -651l305 651h10l-311 -661l313 -664h-10l-307 651l-307 -651h-13z" />
<glyph unicode="y" horiz-adv-x="761" d="M-27 1325h13l358 -653l361 653h12l-367 -663v-662h-10v662z" />
<glyph unicode="z" horiz-adv-x="770" d="M14 1317v8h625v-10l-612 -1307h614v-8h-625v10l613 1307h-615z" />
<glyph unicode="{" />
<glyph unicode="|" horiz-adv-x="182" d="M27 0v1325h10v-1325h-10z" />
<glyph unicode="}" />
<glyph unicode="~" />
<glyph unicode="&#xa9;" />
<glyph unicode="&#xad;" horiz-adv-x="477" d="M20 657v11h447v-11h-447z" />
<glyph unicode="&#xae;" />
<glyph unicode="&#x2c6;" />
<glyph unicode="&#x2dc;" />
<glyph unicode="&#x2000;" horiz-adv-x="664" />
<glyph unicode="&#x2001;" horiz-adv-x="1329" />
<glyph unicode="&#x2002;" horiz-adv-x="664" />
<glyph unicode="&#x2003;" horiz-adv-x="1329" />
<glyph unicode="&#x2004;" horiz-adv-x="443" />
<glyph unicode="&#x2005;" horiz-adv-x="332" />
<glyph unicode="&#x2006;" horiz-adv-x="221" />
<glyph unicode="&#x2007;" horiz-adv-x="221" />
<glyph unicode="&#x2008;" horiz-adv-x="166" />
<glyph unicode="&#x2009;" horiz-adv-x="265" />
<glyph unicode="&#x200a;" horiz-adv-x="73" />
<glyph unicode="&#x2010;" horiz-adv-x="477" d="M20 657v11h447v-11h-447z" />
<glyph unicode="&#x2011;" horiz-adv-x="477" d="M20 657v11h447v-11h-447z" />
<glyph unicode="&#x2012;" horiz-adv-x="477" d="M20 657v11h447v-11h-447z" />
<glyph unicode="&#x2013;" horiz-adv-x="477" d="M20 657v11h447v-11h-447z" />
<glyph unicode="&#x2014;" horiz-adv-x="477" d="M20 657v11h447v-11h-447z" />
<glyph unicode="&#x2018;" horiz-adv-x="100" d="M2 1184v127h10v-127h-10z" />
<glyph unicode="&#x2019;" horiz-adv-x="100" d="M2 1184v127h10v-127h-10z" />
<glyph unicode="&#x201c;" horiz-adv-x="256" d="M2 1184v127h10v-127h-10zM125 1184v127h10v-127h-10z" />
<glyph unicode="&#x201d;" horiz-adv-x="256" d="M2 1184v127h10v-127h-10zM125 1184v127h10v-127h-10z" />
<glyph unicode="&#x2022;" />
<glyph unicode="&#x202f;" horiz-adv-x="265" />
<glyph unicode="&#x205f;" horiz-adv-x="332" />
<glyph unicode="&#x2122;" horiz-adv-x="1656" />
<glyph unicode="&#xe000;" horiz-adv-x="1320" d="M0 0v1321h1321v-1321h-1321z" />
</font>
</defs>
</svg>
